HIERARCHY
ROOT Pelvis
{
	OFFSET 0.000000 0.000000 0.000000
	CHANNELS 6 Xposition Yposition Zposition Xrotation Yrotation Zrotation
	JOINT LeftUpLeg_virtual
	{
		OFFSET 0.000000 0.000000 0.000000
		CHANNELS 3 Xrotation Yrotation Zrotation
		JOINT LeftUpLeg
		{
			OFFSET 18.735201 -5.666702 -4.541200
			CHANNELS 3 Xrotation Yrotation Zrotation
			JOINT LeftLeg
			{
				OFFSET -0.021200 -31.938179 0.493100
				CHANNELS 3 Xrotation Yrotation Zrotation
				JOINT LeftFoot
				{
					OFFSET 0.021200 -31.938179 -4.336299
					CHANNELS 3 Xrotation Yrotation Zrotation
					JOINT LeftToeBase
					{
						OFFSET 0.943001 -26.722000 15.023500
						CHANNELS 3 Xrotation Yrotation Zrotation
						End Site
						{
							OFFSET 0 0 0
						}
					}
				}
			}
		}
	}
	JOINT RightUpLeg_virtual
	{
		OFFSET 0.000000 0.000000 0.000000
		CHANNELS 3 Xrotation Yrotation Zrotation
		JOINT RightUpLeg
		{
			OFFSET -18.735201 -5.666702 -4.541200
			CHANNELS 3 Xrotation Yrotation Zrotation
			JOINT RightLeg
			{
				OFFSET 0.018946 -31.938133 0.493100
				CHANNELS 3 Xrotation Yrotation Zrotation
				JOINT RightFoot
				{
					OFFSET -0.018946 -31.938126 -4.336299
					CHANNELS 3 Xrotation Yrotation Zrotation
					JOINT RightToeBase
					{
						OFFSET -0.943001 -26.722004 15.023500
						CHANNELS 3 Xrotation Yrotation Zrotation
						End Site
						{
							OFFSET 0 0 0
						}
					}
				}
			}
		}
	}
	JOINT Hips_virtual
	{
		OFFSET 0.000000 0.000000 0.000000
		CHANNELS 3 Xrotation Yrotation Zrotation
		JOINT Hips
		{
			OFFSET -0.000000 -0.000000 -0.000000
			CHANNELS 3 Xrotation Yrotation Zrotation
			JOINT Spine
			{
				OFFSET 0.000000 10.199997 -0.299500
				CHANNELS 3 Xrotation Yrotation Zrotation
				JOINT Spine1
				{
					OFFSET 0.000000 11.900002 -1.516600
					CHANNELS 3 Xrotation Yrotation Zrotation
					JOINT Spine2
					{
						OFFSET 0.000000 13.600006 -2.842500
						CHANNELS 3 Xrotation Yrotation Zrotation
						JOINT Neck_virtual
						{
							OFFSET 0.000000 0.000000 0.000000
							CHANNELS 3 Xrotation Yrotation Zrotation
							JOINT Neck
							{
								OFFSET 0.000000 9.624100 -2.890100
								CHANNELS 3 Xrotation Yrotation Zrotation
								JOINT Head
								{
									OFFSET 0.000000 14.068802 -1.351900
									CHANNELS 3 Xrotation Yrotation Zrotation
									End Site
									{
										OFFSET 0 0 0
									}
								}
							}
						}
						JOINT LeftShoulder_virtual
						{
							OFFSET 0.000000 0.000000 0.000000
							CHANNELS 3 Xrotation Yrotation Zrotation
							JOINT LeftShoulder
							{
								OFFSET 15.263000 10.923401 -0.547700
								CHANNELS 3 Xrotation Yrotation Zrotation
								JOINT LeftArm
								{
									OFFSET 25.438599 -2.830597 -13.032500
									CHANNELS 3 Xrotation Yrotation Zrotation
									JOINT LeftForeArm
									{
										OFFSET 29.960503 0.000000 0.000000
										CHANNELS 3 Xrotation Yrotation Zrotation
										JOINT LeftHand
										{
											OFFSET 27.849251 0.000000 0.000000
											CHANNELS 3 Xrotation Yrotation Zrotation
											End Site
											{
												OFFSET 0 0 0
											}
										}
									}
								}
							}
						}
						JOINT RightShoulder_virtual
						{
							OFFSET 0.000000 0.000000 0.000000
							CHANNELS 3 Xrotation Yrotation Zrotation
							JOINT RightShoulder
							{
								OFFSET -15.263000 10.923401 -0.547700
								CHANNELS 3 Xrotation Yrotation Zrotation
								JOINT RightArm
								{
									OFFSET -25.438599 -2.830597 -13.032500
									CHANNELS 3 Xrotation Yrotation Zrotation
									JOINT RightForeArm
									{
										OFFSET -29.960503 0.000000 0.000000
										CHANNELS 3 Xrotation Yrotation Zrotation
										JOINT RightHand
										{
											OFFSET -27.849251 0.000000 0.000000
											CHANNELS 3 Xrotation Yrotation Zrotation
											End Site
											{
												OFFSET 0 0 0
											}
										}
									}
								}
							}
						}
					}
				}
			}
		}
	}
}
MOTION
Frames: 13
Frame Time: 0.03333333
-6.187757 78.193886 -4.288654 0.000000 0.000000 0.000000 55.148867 -71.937724 42.892338 -75.270078 -3.353034 14.945494 53.867448 -9.598262 5.870004 4.012828 3.913248 -17.996881 0.000000 0.000000 0.000000 46.424717 -70.723255 33.631688 -60.461367 -3.518933 -18.614519 54.644440 0.392553 3.718349 22.750179 0.876716 5.612027 0.000000 0.000000 0.000000 45.885491 -70.246720 35.030469 0.894267 1.798669 -1.287930 4.594346 12.456734 -3.413811 8.123922 14.003659 -2.288497 0.000000 0.000000 0.000000 4.580578 13.723925 -1.091618 3.096558 1.646774 -2.576938 0.000000 0.000000 0.000000 4.253987 13.763217 -0.727710 5.464529 -3.107890 -8.257791 -57.966668 -30.550835 -48.783260 -6.041033 -82.953467 -3.798985 0.000000 0.000000 0.000000 4.518735 14.650185 -1.211086 -15.786509 5.016115 -6.826977 -87.028631 38.649865 107.770625 4.493513 41.535354 -2.723133 0.000000 0.000000 0.000000 
-6.925363 79.079956 -7.330631 0.000000 0.000000 0.000000 54.682194 -71.687644 42.480618 -74.428763 -1.840152 13.633291 53.570144 -9.939537 5.366612 5.479387 3.464233 -18.013302 0.000000 0.000000 0.000000 49.637177 -71.273447 37.006347 -59.836917 -4.333746 -18.245923 54.582033 0.039713 4.021340 23.166089 0.574756 6.361533 0.000000 0.000000 0.000000 48.922435 -70.285037 37.432292 1.082726 1.316185 -1.418122 3.886197 12.578890 -3.012938 7.913167 14.151179 -2.154994 0.000000 0.000000 0.000000 4.219582 13.823729 -0.961305 3.077590 1.573789 -2.525400 0.000000 0.000000 0.000000 4.036676 13.911911 -0.616143 5.521572 -2.732183 -8.074152 -58.734832 -29.735430 -48.540833 -5.390613 -82.926010 -3.177242 0.000000 0.000000 0.000000 4.402133 14.802458 -1.080816 -15.705660 5.428280 -6.722386 -87.111304 39.382553 107.866254 4.639694 41.160663 -2.866333 0.000000 0.000000 0.000000 
-8.227039 80.698410 -12.571293 0.000000 0.000000 0.000000 51.313777 -70.927164 39.465598 -72.937582 0.483576 11.734927 52.565085 -10.678954 3.687078 7.542923 1.738375 -19.200309 0.000000 0.000000 0.000000 49.167376 -70.432337 36.713172 -58.132881 -5.107154 -16.085295 54.579642 -1.039719 3.650453 20.213619 -0.482792 8.066911 0.000000 0.000000 0.000000 49.650025 -70.048371 37.895956 1.147110 0.745592 -1.176992 3.120958 12.878723 -2.060647 7.657818 14.433064 -1.720716 0.000000 0.000000 0.000000 3.648548 14.100742 -0.411115 3.034031 1.455223 -2.464814 0.000000 0.000000 0.000000 3.686061 14.172350 -0.134645 5.450833 -2.440883 -8.129009 -59.601549 -28.921500 -48.810485 -4.214324 -82.988069 -2.079786 0.000000 0.000000 0.000000 4.125959 15.097506 -0.600512 -15.493048 7.022327 -7.000605 -86.415458 40.728951 106.685308 5.026038 41.679273 -3.117126 0.000000 0.000000 0.000000 
-9.654546 82.274353 -18.982513 0.000000 0.000000 0.000000 46.399958 -69.784268 35.125313 -71.372977 3.625998 9.491414 51.429064 -10.854975 1.400286 9.888683 0.155010 -19.705437 0.000000 0.000000 0.000000 46.310602 -69.266915 34.268456 -55.951858 -5.505597 -13.609070 55.867177 -2.130021 2.984506 15.601918 -1.791456 10.420353 0.000000 0.000000 0.000000 47.726811 -69.992241 36.402494 1.809273 -0.018627 -1.284724 2.580441 13.383464 -0.898790 7.398837 14.851809 -1.077668 0.000000 0.000000 0.000000 3.044777 14.536786 0.413303 2.981159 1.309930 -2.411312 0.000000 0.000000 0.000000 3.294467 14.577166 0.596175 5.258939 -2.267696 -8.425511 -60.136271 -28.443175 -49.568360 -2.497853 -82.759305 -0.541471 0.000000 0.000000 0.000000 3.784821 15.543533 0.106475 -15.170325 9.524512 -7.687871 -85.059631 42.214715 104.765806 5.573368 42.503810 -3.417723 0.000000 0.000000 0.000000 
-11.178531 83.176857 -26.457367 0.000000 0.000000 0.000000 41.233722 -69.090109 30.897081 -69.625746 6.789346 6.778493 50.874773 -10.211961 -0.432277 11.336074 -0.453990 -18.519368 0.000000 0.000000 0.000000 41.927096 -68.680407 30.902904 -53.829995 -5.466654 -12.701791 59.504444 -2.797014 2.278039 12.208418 -2.963321 12.320385 0.000000 0.000000 0.000000 45.323930 -70.511854 34.850053 2.067501 -0.474449 -1.583778 2.434869 14.047420 0.085845 7.151856 15.408509 -0.363108 0.000000 0.000000 0.000000 2.583839 15.141373 1.307830 2.936310 1.145777 -2.373464 0.000000 0.000000 0.000000 2.972652 15.136842 1.391620 4.994749 -2.129632 -8.882483 -60.290565 -28.287954 -50.649500 -0.699369 -81.949238 0.984522 0.000000 0.000000 0.000000 3.488512 16.134517 0.873020 -14.753021 12.468331 -8.688449 -83.263517 43.457277 102.840908 6.145887 43.067092 -3.665290 0.000000 0.000000 0.000000 
-12.543368 82.994545 -34.901970 0.000000 0.000000 0.000000 36.256007 -69.791979 27.426449 -68.096890 8.277273 3.862218 51.875068 -8.774921 -1.052392 11.909809 -0.126361 -15.491089 0.000000 0.000000 0.000000 36.674824 -69.266560 27.316597 -51.855780 -4.847004 -14.455301 64.740897 -3.172694 1.704240 10.369299 -4.074163 12.069698 0.000000 0.000000 0.000000 43.245353 -72.215494 34.103930 1.531952 -0.808686 -1.364065 2.742020 14.791652 0.542951 6.908981 16.044181 0.260226 0.000000 0.000000 0.000000 2.382137 15.854279 2.009738 2.906984 0.991659 -2.374304 0.000000 0.000000 0.000000 2.804046 15.833345 2.040761 4.715731 -1.972722 -9.403400 -60.129932 -28.320903 -51.741494 0.812573 -80.658196 2.152064 0.000000 0.000000 0.000000 3.314020 16.830447 1.493018 -14.286802 15.246481 -9.793326 -81.463325 44.096056 101.585772 6.505566 42.980755 -3.775348 0.000000 0.000000 0.000000 
-13.478810 81.666382 -43.986649 0.000000 0.000000 0.000000 31.662479 -72.736091 25.117370 -68.094712 7.507772 1.973110 56.329772 -7.221641 -0.393268 11.840638 0.926299 -11.516614 0.000000 0.000000 0.000000 32.245449 -72.386488 25.293343 -50.569286 -3.161238 -18.522194 70.294784 -3.446592 1.235297 8.376564 -5.108513 9.611323 0.000000 0.000000 0.000000 41.734819 -75.532480 34.671700 0.818562 -1.449775 -1.020304 3.389917 15.493371 0.425858 6.710289 16.699492 0.639517 0.000000 0.000000 0.000000 2.454290 16.591638 2.361001 2.916746 0.872526 -2.428448 0.000000 0.000000 0.000000 2.827548 16.574569 2.374439 4.482520 -1.778261 -9.908940 -59.926563 -28.516892 -52.632420 2.019632 -79.259223 2.967042 0.000000 0.000000 0.000000 3.343414 17.566251 1.794321 -13.867391 17.350327 -10.864837 -80.127818 44.068572 101.151161 6.612160 42.259726 -3.639520 0.000000 0.000000 0.000000 
-14.262523 79.504066 -53.403122 0.000000 0.000000 0.000000 28.727800 -78.131285 25.000630 -69.633820 4.593761 1.882348 63.703467 -6.164488 1.267051 10.586858 1.928898 -7.857561 0.000000 0.000000 0.000000 30.487502 -77.821919 26.254583 -49.564388 -0.092576 -23.674448 73.847268 -3.355061 0.579922 5.808241 -5.099506 6.685481 0.000000 0.000000 0.000000 43.682953 -79.959324 39.143695 0.150172 -1.409549 -0.586070 4.232543 15.987086 -0.258142 6.612850 17.271680 0.661961 0.000000 0.000000 0.000000 2.729603 17.240641 2.293006 2.964662 0.802512 -2.562106 0.000000 0.000000 0.000000 3.073518 17.238436 2.294074 4.333210 -1.563161 -10.373377 -59.987960 -28.787588 -53.196881 3.094832 -78.385560 3.663813 0.000000 0.000000 0.000000 3.554032 18.210514 1.728259 -13.588538 18.316713 -11.880277 -79.524733 43.579660 101.190625 6.381927 41.233985 -3.212079 0.000000 0.000000 0.000000 
-14.712218 77.006973 -62.534698 0.000000 0.000000 0.000000 34.697337 -84.949098 33.887031 -71.649033 0.025463 3.546751 71.185434 -5.901236 3.545135 8.905044 2.078606 -5.652156 0.000000 0.000000 0.000000 42.666112 -84.425216 40.879994 -48.472364 4.331505 -28.490534 74.012360 -2.272738 -0.533221 3.607285 -3.102880 5.677928 0.000000 0.000000 0.000000 59.126660 -84.525107 57.174113 -0.139467 -1.156763 -0.466352 4.972346 16.197082 -1.395514 6.574854 17.626814 0.348215 0.000000 0.000000 0.000000 3.098824 17.651376 1.822329 3.052958 0.803480 -2.746074 0.000000 0.000000 0.000000 3.459125 17.660945 1.848482 4.293019 -1.445865 -10.774165 -60.360991 -29.264827 -53.426112 4.350471 -78.340289 4.572761 0.000000 0.000000 0.000000 3.900333 18.612161 1.325951 -13.461289 17.990382 -12.814944 -79.930794 42.845080 101.539962 5.836907 39.933145 -2.542569 0.000000 0.000000 0.000000 
-14.755688 74.787720 -71.729721 0.000000 0.000000 0.000000 150.528053 -87.208101 151.995369 -72.277690 -5.262630 6.587565 75.528505 -6.477000 6.073908 8.067433 1.127949 -5.545058 0.000000 0.000000 0.000000 136.718722 -86.345373 136.692917 -47.383228 9.022968 -32.210981 70.787124 0.097785 -1.620626 1.651011 0.612604 7.203892 0.000000 0.000000 0.000000 117.573483 -86.206153 117.762420 -0.058328 -0.314898 -0.509526 5.366359 16.099232 -2.716154 6.545988 17.674525 -0.137924 0.000000 0.000000 0.000000 3.499521 17.757911 1.138437 3.207346 0.847924 -2.922633 0.000000 0.000000 0.000000 3.852671 17.769605 1.186462 4.356360 -1.400095 -11.228225 -60.833066 -29.944635 -53.456458 6.046118 -78.964486 5.919616 0.000000 0.000000 0.000000 4.262793 18.706777 0.733448 -13.414398 16.543840 -13.559013 -81.371636 42.177832 102.461970 5.183127 38.539202 -1.783158 0.000000 0.000000 0.000000 
-14.435252 73.331207 -80.947525 0.000000 0.000000 0.000000 171.247965 -82.139896 173.886685 -69.991681 -10.161758 10.752535 74.323182 -7.764055 8.372617 8.327587 -1.014665 -7.429808 0.000000 0.000000 0.000000 163.995683 -81.914226 164.974272 -46.210888 12.681567 -34.627994 65.812390 3.293172 -2.047527 -0.301314 4.814988 9.969843 0.000000 0.000000 0.000000 152.538383 -83.735906 154.083658 0.344360 0.766469 -0.613347 5.288697 15.729405 -3.955292 6.469600 17.389344 -0.632109 0.000000 0.000000 0.000000 3.811657 17.543611 0.421358 3.383143 0.925049 -3.053311 0.000000 0.000000 0.000000 4.148611 17.540382 0.484100 4.502587 -1.383750 -11.785145 -61.038074 -30.733420 -53.328877 8.441414 -80.098489 7.956193 0.000000 0.000000 0.000000 4.510219 18.481701 0.117290 -13.384490 14.319903 -13.948889 -83.597930 41.659202 104.291777 4.543247 37.191138 -1.145944 0.000000 0.000000 0.000000 
-13.698241 72.779099 -89.943817 0.000000 0.000000 0.000000 171.230370 -78.538610 174.075909 -65.467875 -13.494016 15.583918 67.714523 -9.758230 9.670125 10.481931 -3.622157 -10.188947 0.000000 0.000000 0.000000 167.768980 -78.735101 169.168350 -45.572016 14.486707 -35.752168 62.221958 6.354020 -1.551751 -2.466224 8.134357 12.386594 0.000000 0.000000 0.000000 161.898037 -80.994309 164.084940 0.918734 1.410076 -1.178561 4.765724 15.173743 -4.798219 6.349387 16.823977 -0.999099 0.000000 0.000000 0.000000 4.002348 17.046071 -0.168231 3.541476 1.032722 -3.105917 0.000000 0.000000 0.000000 4.320695 17.031934 -0.135376 4.696587 -1.332291 -12.295575 -60.723715 -31.627932 -53.034404 11.845589 -81.537145 10.992901 0.000000 0.000000 0.000000 4.668069 17.978132 -0.412654 -13.345437 11.701086 -13.924859 -86.323803 41.200299 107.071411 4.062797 35.986511 -0.771473 0.000000 0.000000 0.000000 
-12.689823 73.040016 -98.766769 0.000000 0.000000 0.000000 170.217521 -76.529961 172.639902 -60.965982 -14.435093 20.334335 58.839853 -11.561843 9.280058 14.924242 -5.333619 -11.792864 0.000000 0.000000 0.000000 169.436503 -77.075543 170.776067 -46.225621 13.873835 -35.631700 62.777443 8.290372 -0.340452 -3.973061 9.868861 13.189260 0.000000 0.000000 0.000000 165.629492 -78.853441 167.814620 1.277801 1.813625 -1.702426 4.115730 14.515950 -5.060123 6.279272 16.078177 -1.208272 0.000000 0.000000 0.000000 4.129333 16.334896 -0.533036 3.643800 1.148245 -3.090172 0.000000 0.000000 0.000000 4.341063 16.331657 -0.578645 4.868563 -1.192853 -12.680437 -60.080263 -32.511738 -52.740743 16.576512 -83.154500 15.367791 0.000000 0.000000 0.000000 4.711522 17.264509 -0.740998 -13.304169 9.012163 -13.444598 -88.980248 40.620310 110.215088 3.818845 35.363916 -0.743661 0.000000 0.000000 0.000000 
